<?xml version="1.0" encoding="utf-8"?>
<!-- Generator: Adobe Illustrator 24.0.3, SVG Export Plug-In . SVG Version: 6.00 Build 0)  -->
<svg fill="#fff" version="1.1" id="Слой_1" xmlns="http://www.w3.org/2000/svg" xmlns:xlink="http://www.w3.org/1999/xlink" x="0px" y="0px"
	 viewBox="0 0 1536 1536" style="enable-background:new 0 0 1536 1536;" xml:space="preserve">
<path d="M394,1224c-5.3,6-12,5-20-3c-8.7-7.3-10-13.7-4-19c5.3-6,12-5,20,3C398,1212.3,399.3,1218.7,394,1224z M352,1163
	c6,8,6,14.3,0,19c-5.3,4-11,1.7-17-7s-6-14.7,0-18C341,1152.3,346.7,1154.3,352,1163z M291,1103c-3.3,4.7-7.7,5.3-13,2
	c-6.7-3.3-9-7.3-7-12c2-3.3,6.3-4,13-2C290.7,1094.3,293,1098.3,291,1103z M322,1137c-4,4.7-9.3,3.7-16-3c-6-7.3-6.7-12.7-2-16
	c4-4,9.3-3,16,3C326,1128.3,326.7,1133.7,322,1137z M451,1249c-2.7,8-9,10-19,6c-11.3-2.7-15.7-7.7-13-15s9-9.7,19-7
	C448.7,1236.3,453,1241.7,451,1249z M514,1254c0,7.3-5.3,11-16,11c-11.3,1.3-17-2.3-17-11c0-7.3,5.3-11,16-11
	C508.3,1241.7,514,1245.3,514,1254z M572,1244c1.3,6.7-3.3,11.3-14,14s-16.7,0-18-8s3.3-13,14-15
	C564.7,1233.7,570.7,1236.7,572,1244z M1536,288v960c0,79.3-28.2,147.2-84.5,203.5S1327.3,1536,1248,1536h-224
	c-10.7,0-18.8-0.3-24.5-1s-12.2-2.3-19.5-5s-12.7-7.5-16-14.5s-5-16.2-5-27.5v-239c0-64.7-17.3-112-52-142c38-4,72.2-10,102.5-18
	s61.7-21,94-39s59.3-40.2,81-66.5s39.3-61.3,53-105c13.7-43.7,20.5-93.8,20.5-150.5c0-80.7-26.3-149.3-79-206
	c24.7-60.7,22-128.7-8-204c-18.7-6-45.7-2.3-81,11s-66,28-92,44l-38,24c-62-17.3-126-26-192-26s-130,8.7-192,26
	c-10.7-7.3-24.8-16.3-42.5-27S488,346.5,450,331.5S383.3,312,364,318c-29.3,75.3-31.7,143.3-7,204c-52.7,56.7-79,125.3-79,206
	c0,56.7,6.8,106.7,20.5,150c13.7,43.3,31.2,78.3,52.5,105s48.2,49,80.5,67s63.7,31,94,39s64.5,14,102.5,18c-26.7,24-43,58.3-49,103
	c-14,6.7-29,11.7-45,15s-35,5-57,5s-43.8-7.2-65.5-21.5s-40.2-35.2-55.5-62.5c-12.7-21.3-28.8-38.7-48.5-52s-36.2-21.3-49.5-24
	l-20-3c-14,0-23.7,1.5-29,4.5s-7,6.8-5,11.5s5,9.3,9,14s8.3,8.7,13,12l7,5c14.7,6.7,29.2,19.3,43.5,38s24.8,35.7,31.5,51l10,23
	c8.7,25.3,23.3,45.8,44,61.5s43,25.7,67,30s47.2,6.7,69.5,7s40.8-0.8,55.5-3.5l23-4c0,25.3,0.2,59.7,0.5,103s0.5,66,0.5,68
	c0,14.7-3.7,25.8-11,33.5s-14.7,12-22,13s-18.3,1.5-33,1.5H288c-79.3,0-147.2-28.2-203.5-84.5S0,1327.3,0,1248V288
	c0-79.3,28.2-147.2,84.5-203.5S208.7,0,288,0h960c79.3,0,147.2,28.2,203.5,84.5S1536,208.7,1536,288z"/>
</svg>
