<?xml version="1.0" encoding="utf-8"?>
<!-- Generator: Adobe Illustrator 24.0.3, SVG Export Plug-In . SVG Version: 6.00 Build 0)  -->
<svg fill="#fff" version="1.1" id="Livello_1" xmlns="http://www.w3.org/2000/svg" xmlns:xlink="http://www.w3.org/1999/xlink" x="0px" y="0px"
	 viewBox="0 0 140.3 86.4" style="enable-background:new 0 0 140.3 86.4;" xml:space="preserve">
<g id="Livello_106">
	<path d="M90.9,43.2l39.8,34.1l-3.6,3.6L86.9,46.6L70.2,60.9L53.6,46.7L13.7,81l-3.8-3.8l39.6-34L9.7,9l3.6-3.6L70,54l12.8-11l0,0
		h0.1l43.8-37.6l3.8,3.8L90.9,43.2z M140.3,81V5.4c0-3-2.4-5.4-5.4-5.4c0,0,0,0-0.1,0c0,0,0,0-0.1,0c-0.3,0-0.7,0-1,0.1V0H11.2v0
		H5.6C5.5,0,5.5,0,5.4,0c0,0,0,0-0.1,0c0,0,0,0-0.1,0C2.4,0,0,2.4,0,5.3c0,0,0,0,0,0.1c0,0,0,0,0,0.1V81c0,3,2.4,5.4,5.4,5.4h129.5
		C137.9,86.4,140.3,83.9,140.3,81"/>
</g>
<g id="Livello_1_1_">
</g>
</svg>
