<?xml version="1.0" encoding="utf-8"?>
<!-- Generator: Adobe Illustrator 24.0.3, SVG Export Plug-In . SVG Version: 6.00 Build 0)  -->
<svg version="1.1" id="Слой_1" xmlns="http://www.w3.org/2000/svg" xmlns:xlink="http://www.w3.org/1999/xlink" x="0px" y="0px"
	 viewBox="0 0 36 36" style="enable-background:new 0 0 36 36;" xml:space="preserve">
<style type="text/css">
	.st0{fill:none;}
</style>
<path class="st0" d="M-6-6h48v48H-6V-6z"/>
<path fill="#fff" d="M20,12h-4v4h4V12z M28,12h-4v4h4V12z M34,25c-2.5,0-4.9-0.4-7.1-1.1c-0.7-0.2-1.5-0.1-2,0.5l-4.4,4.4
	c-5.7-2.9-10.3-7.5-13.2-13.2l4.4-4.4c0.5-0.5,0.7-1.3,0.5-2C11.4,6.9,11,4.5,11,2c0-1.1-0.9-2-2-2H2C0.9,0,0,0.9,0,2
	c0,18.8,15.2,34,34,34c1.1,0,2-0.9,2-2v-7C36,25.9,35.1,25,34,25z M32,12v4h4v-4H32z"/>
</svg>
